<svg width="60" height="60" viewBox="0 0 60 60" fill="none" xmlns="http://www.w3.org/2000/svg">
<path d="M50.0336 2.90674H9.4596C7.35162 2.90674 5.32994 3.74413 3.83937 5.23471C2.34877 6.72532 1.51138 8.74697 1.51138 10.855V51.4291C1.51138 53.5372 2.34877 55.5588 3.83937 57.0493C5.32994 58.5398 7.35162 59.3773 9.4596 59.3773H27.9255V38.7655H20.9443V30.7256H27.9255V24.8032C27.9255 21.4467 28.8537 18.8385 30.7102 16.9856C32.5667 15.1291 35.0831 14.1973 38.2631 14.1973C41.4466 14.1973 43.5078 14.3209 44.4501 14.5538V21.7115H40.2078C38.676 21.7115 37.6313 22.0362 37.0701 22.6856C36.5125 23.3315 36.2337 24.3056 36.2337 25.6009V30.7256H44.1854L43.1266 38.7655H36.2337V59.3773H50.0336C52.1418 59.3773 54.1634 58.5398 55.6539 57.0493C57.1447 55.5588 57.9819 53.5372 57.9819 51.4291V10.855C57.9819 8.74697 57.1447 6.72532 55.6539 5.23471C54.1634 3.74413 52.1418 2.90674 50.0336 2.90674Z" fill="black"/>
</svg>
