<svg width="35" height="35" viewBox="0 0 35 35" fill="none" xmlns="http://www.w3.org/2000/svg">
<path d="M1.209 20.4808H4.05988V31.8842C4.05988 32.5562 4.60969 33.106 5.28168 33.106H13.6306C14.3026 33.106 14.8524 32.5562 14.8524 31.8842V23.5353H19.9432V31.8842C19.9432 32.5562 20.493 33.106 21.165 33.106H29.1067C29.7787 33.106 30.3285 32.5562 30.3285 31.8842V20.4808H33.7903C34.279 20.4808 34.727 20.1753 34.9102 19.7273C35.0935 19.2794 34.9917 18.7499 34.6455 18.4037L18.7214 2.25566C18.2531 1.78728 17.4793 1.76694 17.0109 2.23532L0.374154 18.3834C0.00761513 18.7296 -0.0942252 19.259 0.0890442 19.7273C0.272314 20.1957 0.720282 20.4808 1.209 20.4808ZM17.8254 4.84177L30.8579 18.0372H29.1066C28.4346 18.0372 27.8848 18.587 27.8848 19.259V30.6624H22.3867V22.3135C22.3867 21.6415 21.8369 21.0917 21.165 21.0917H13.6306C12.9587 21.0917 12.4088 21.6415 12.4088 22.3135V30.6624H6.50347V19.259C6.50347 18.587 5.95366 18.0372 5.28168 18.0372H4.22281L17.8254 4.84177Z" fill="black"/>
</svg>
