<svg aria-hidden="true" style="position: absolute; width: 0; height: 0; overflow: hidden;" version="1.1" xmlns="http://www.w3.org/2000/svg" xmlns:xlink="http://www.w3.org/1999/xlink">
<defs>
<symbol id="icon-email" viewBox="0 0 28 32">
<path d="M25.535 7.957c-0.052-0.079-0.116-0.146-0.19-0.196s-0.156-0.084-0.241-0.098c-0.085-0.014-0.172-0.009-0.256 0.015s-0.162 0.067-0.231 0.126l-10.585 9.030c-0.038 0.032-0.084 0.050-0.131 0.050s-0.093-0.018-0.131-0.050l-10.378-9.070c-0.069-0.060-0.147-0.104-0.23-0.129s-0.17-0.031-0.256-0.018c-0.085 0.013-0.168 0.045-0.242 0.095s-0.14 0.115-0.192 0.194c-0.052 0.078-0.091 0.168-0.113 0.263s-0.028 0.194-0.016 0.292c0.011 0.098 0.040 0.192 0.083 0.277s0.101 0.16 0.169 0.22l8.159 7.132-8.070 6.95c-0.070 0.059-0.128 0.134-0.173 0.219s-0.074 0.179-0.086 0.278-0.008 0.198 0.013 0.294c0.021 0.096 0.059 0.186 0.111 0.266s0.117 0.146 0.191 0.197c0.075 0.051 0.157 0.084 0.243 0.098s0.173 0.009 0.257-0.015c0.084-0.024 0.163-0.067 0.233-0.127l8.363-7.215 1.133 1c0.264 0.231 0.587 0.358 0.92 0.36s0.657-0.119 0.924-0.345l1.19-1.015 8.461 7.215c0.069 0.059 0.148 0.102 0.231 0.126s0.17 0.029 0.256 0.015c0.085-0.014 0.167-0.047 0.241-0.098s0.139-0.117 0.19-0.196c0.052-0.079 0.089-0.169 0.11-0.264s0.026-0.195 0.013-0.292c-0.012-0.097-0.041-0.191-0.086-0.276s-0.102-0.159-0.171-0.217l-8.151-6.96 8.302-7.088c0.138-0.119 0.229-0.295 0.254-0.49s-0.018-0.394-0.12-0.553z"></path>
<path d="M24.719 4.75h-21.437c-0.87 0-1.705 0.395-2.32 1.098s-0.961 1.657-0.961 2.652v15c0 0.995 0.346 1.948 0.961 2.652s1.45 1.098 2.32 1.098h21.437c0.87 0 1.705-0.395 2.32-1.098s0.961-1.657 0.961-2.652v-15c0-0.995-0.346-1.948-0.961-2.652s-1.45-1.098-2.32-1.098zM26.688 23.5c0 0.597-0.207 1.169-0.577 1.591s-0.87 0.659-1.392 0.659h-21.437c-0.522 0-1.023-0.237-1.392-0.659s-0.577-0.994-0.577-1.591v-15c0-0.597 0.207-1.169 0.577-1.591s0.87-0.659 1.392-0.659h21.437c0.522 0 1.023 0.237 1.392 0.659s0.577 0.994 0.577 1.591v15z"></path>
</symbol>
<symbol id="icon-facebook" viewBox="0 0 32 32">
<path d="M26.685 1.55h-21.639c-1.124 0-2.203 0.447-2.997 1.242s-1.242 1.873-1.242 2.998v21.64c0 1.124 0.447 2.203 1.242 2.997s1.873 1.242 2.997 1.242h9.848v-10.993h-3.723v-4.288h3.723v-3.159c0-1.79 0.495-3.181 1.485-4.169 0.99-0.99 2.332-1.487 4.028-1.487 1.698 0 2.797 0.066 3.3 0.19v3.817h-2.263c-0.817 0-1.374 0.173-1.673 0.52-0.297 0.344-0.446 0.864-0.446 1.555v2.733h4.241l-0.565 4.288h-3.676v10.993h7.36c1.124 0 2.203-0.447 2.997-1.242s1.242-1.873 1.242-2.997v-21.64c0-1.124-0.447-2.203-1.242-2.998s-1.873-1.242-2.997-1.242z"></path>
</symbol>
<symbol id="icon-home" viewBox="0 0 32 32">
<path d="M1.105 18.725h2.607v10.426c0 0.614 0.503 1.117 1.117 1.117h7.633c0.614 0 1.117-0.503 1.117-1.117v-7.633h4.654v7.633c0 0.614 0.503 1.117 1.117 1.117h7.261c0.614 0 1.117-0.503 1.117-1.117v-10.426h3.165c0.447 0 0.856-0.279 1.024-0.689s0.075-0.894-0.242-1.21l-14.559-14.764c-0.428-0.428-1.136-0.447-1.564-0.019l-15.211 14.764c-0.335 0.317-0.428 0.801-0.261 1.229s0.577 0.689 1.024 0.689zM16.297 4.427l11.915 12.064h-1.601c-0.614 0-1.117 0.503-1.117 1.117v10.426h-5.027v-7.633c0-0.614-0.503-1.117-1.117-1.117h-6.889c-0.614 0-1.117 0.503-1.117 1.117v7.633h-5.399v-10.426c0-0.614-0.503-1.117-1.117-1.117h-0.968l12.437-12.064z"></path>
</symbol>
<symbol id="icon-instagram" viewBox="0 0 32 32">
<path d="M30.139 9c0-4.209-3.362-7.625-7.504-7.625h-13.778c-4.142 0-7.504 3.417-7.504 7.625v14c0 4.209 3.362 7.625 7.504 7.625h13.778c4.142 0 7.504-3.417 7.504-7.625v-14zM28.909 9v14c0 3.519-2.811 6.375-6.274 6.375h-13.778c-3.463 0-6.274-2.856-6.274-6.375v-14c0-3.519 2.811-6.375 6.274-6.375h13.778c3.463 0 6.274 2.856 6.274 6.375z"></path>
<path d="M15.746 8.75c-3.938 0-7.135 3.249-7.135 7.25s3.197 7.25 7.135 7.25 7.135-3.249 7.135-7.25c0-4.001-3.197-7.25-7.135-7.25zM15.746 10c3.259 0 5.905 2.689 5.905 6s-2.646 6-5.905 6c-3.259 0-5.905-2.689-5.905-6s2.646-6 5.905-6z"></path>
<path d="M24.111 5.375c-1.154 0-2.091 0.952-2.091 2.125s0.937 2.125 2.091 2.125c1.154 0 2.091-0.952 2.091-2.125s-0.937-2.125-2.091-2.125zM24.111 6.625c0.475 0 0.861 0.392 0.861 0.875s-0.386 0.875-0.861 0.875c-0.475 0-0.861-0.392-0.861-0.875s0.386-0.875 0.861-0.875z"></path>
</symbol>
<symbol id="icon-linkedin" viewBox="0 0 32 32">
<path d="M32 31.292v-11.832c0-6.34-3.384-9.29-7.896-9.29-3.641 0-5.273 2.003-6.182 3.409v-2.924h-6.86c0.091 1.937 0 20.637 0 20.637h6.86v-11.525c0-0.615 0.044-1.232 0.226-1.672 0.495-1.233 1.624-2.509 3.518-2.509 2.483 0 3.475 1.892 3.475 4.666v11.041l6.859-0.001zM3.835 7.838c2.391 0 3.882-1.586 3.882-3.567-0.044-2.024-1.49-3.564-3.836-3.564s-3.881 1.539-3.881 3.564c0 1.981 1.489 3.567 3.792 3.567h0.043zM7.265 31.292v-20.637h-6.859v20.637h6.859z"></path>
</symbol>
<symbol id="icon-phone" viewBox="0 0 36 32">
<path d="M25.228 30.317c-1.11-0.007-2.215-0.13-3.292-0.366-3.72-0.791-7.55-2.796-10.784-5.647s-5.513-6.226-6.411-9.5c-0.945-3.444-0.271-6.39 1.896-8.299l0.619-0.545c0.561-0.493 1.322-0.771 2.115-0.771s1.554 0.277 2.115 0.771l3.555 3.131c0.561 0.494 0.875 1.164 0.875 1.863s-0.315 1.369-0.875 1.863l-2.1 1.849c1.007 1.556 2.376 3.114 3.994 4.539s3.388 2.633 5.154 3.519l2.099-1.85c0.278-0.245 0.607-0.439 0.97-0.571s0.752-0.201 1.145-0.201c0.393 0 0.782 0.068 1.145 0.201s0.693 0.327 0.97 0.571l3.554 3.131c0.561 0.494 0.876 1.164 0.876 1.863s-0.315 1.369-0.876 1.863l-0.619 0.545c-1.527 1.348-3.642 2.039-6.125 2.039zM9.37 7.063c-0.113-0-0.226 0.019-0.33 0.057s-0.2 0.094-0.279 0.165l-0.619 0.545c-1.623 1.429-2.096 3.75-1.335 6.531 0.807 2.946 2.883 6.006 5.847 8.616s6.437 4.438 9.781 5.151c3.157 0.671 5.79 0.254 7.412-1.176l0.619-0.545c0.162-0.143 0.252-0.336 0.252-0.537s-0.091-0.395-0.252-0.537l-3.554-3.131c-0.162-0.142-0.381-0.222-0.61-0.222s-0.448 0.080-0.61 0.222l-2.661 2.344c-0.16 0.141-0.366 0.233-0.589 0.264s-0.452-0.002-0.652-0.094c-2.182-0.994-4.381-2.441-6.36-4.184s-3.618-3.68-4.749-5.602c-0.104-0.177-0.141-0.378-0.107-0.575s0.139-0.378 0.299-0.519l2.662-2.344c0.162-0.143 0.252-0.336 0.252-0.537s-0.091-0.395-0.252-0.537l-3.554-3.132c-0.080-0.071-0.175-0.127-0.28-0.165s-0.217-0.058-0.33-0.057z"></path>
<path d="M26.364 19.046c-0.282 0-0.553-0.099-0.753-0.275s-0.312-0.414-0.312-0.663c-0.002-1.645-0.745-3.221-2.065-4.385s-3.11-1.817-4.977-1.819c-0.282 0-0.553-0.099-0.753-0.275s-0.312-0.414-0.312-0.663 0.112-0.487 0.312-0.663c0.2-0.176 0.47-0.275 0.753-0.275 5.056 0 9.17 3.625 9.17 8.079 0 0.249-0.112 0.487-0.312 0.663s-0.47 0.275-0.753 0.275z"></path>
<path d="M30.862 19.046c-0.282 0-0.553-0.099-0.753-0.275s-0.312-0.414-0.312-0.663c0-5.606-5.179-10.166-11.539-10.166-0.282 0-0.553-0.099-0.753-0.275s-0.312-0.414-0.312-0.663 0.112-0.487 0.312-0.663c0.2-0.176 0.47-0.275 0.753-0.275 7.537 0 13.668 5.402 13.668 12.041 0 0.249-0.112 0.487-0.312 0.663s-0.47 0.275-0.753 0.275z"></path>
</symbol>
</defs>
</svg>