<svg width="62" height="63" viewBox="0 0 62 63" fill="none" xmlns="http://www.w3.org/2000/svg">
<g clip-path="url(#clip0_1_77)">
<path fill-rule="evenodd" clip-rule="evenodd" d="M59.3359 17.7188C59.3359 9.43327 52.7165 2.70703 44.5625 2.70703H17.4375C9.28353 2.70703 2.66406 9.43327 2.66406 17.7188V45.2812C2.66406 53.5667 9.28353 60.293 17.4375 60.293H44.5625C52.7165 60.293 59.3359 53.5667 59.3359 45.2812V17.7188ZM56.9141 17.7188V45.2812C56.9141 52.2083 51.3796 57.832 44.5625 57.832H17.4375C10.6204 57.832 5.08594 52.2083 5.08594 45.2812V17.7188C5.08594 10.7917 10.6204 5.16797 17.4375 5.16797H44.5625C51.3796 5.16797 56.9141 10.7917 56.9141 17.7188Z" fill="black"/>
<path fill-rule="evenodd" clip-rule="evenodd" d="M31 17.2263C23.2471 17.2263 16.9529 23.622 16.9529 31.4999C16.9529 39.3779 23.2471 45.7736 31 45.7736C38.7529 45.7736 45.047 39.3779 45.047 31.4999C45.047 23.622 38.7529 17.2263 31 17.2263ZM31 19.6876C37.4157 19.6876 42.6248 24.9808 42.6248 31.4999C42.6248 38.0191 37.4157 43.3123 31 43.3123C24.5843 43.3123 19.3752 38.0191 19.3752 31.4999C19.3752 24.9808 24.5843 19.6876 31 19.6876Z" fill="black"/>
<path fill-rule="evenodd" clip-rule="evenodd" d="M47.4688 10.582C45.1965 10.582 43.3517 12.4566 43.3517 14.7656C43.3517 17.0746 45.1965 18.9491 47.4688 18.9491C49.7412 18.9491 51.586 17.0746 51.586 14.7656C51.586 12.4566 49.7412 10.582 47.4688 10.582ZM47.4688 13.0429C48.4045 13.0429 49.1642 13.8148 49.1642 14.7656C49.1642 15.7163 48.4045 16.4883 47.4688 16.4883C46.5332 16.4883 45.7735 15.7163 45.7735 14.7656C45.7735 13.8148 46.5332 13.0429 47.4688 13.0429Z" fill="black"/>
</g>
<defs>
<clipPath id="clip0_1_77">
<rect width="62" height="63" fill="white"/>
</clipPath>
</defs>
</svg>
