<svg width="56" height="56" viewBox="0 0 56 56" fill="none" xmlns="http://www.w3.org/2000/svg">
<path d="M56 54.7611V34.0551C56 22.9601 50.078 17.7976 42.182 17.7976C35.8102 17.7976 32.9543 21.3028 31.3635 23.7633V18.6463H19.3585C19.5177 22.0361 19.3585 54.7611 19.3585 54.7611H31.3635V34.5923C31.3635 33.5161 31.4405 32.4363 31.759 31.6663C32.6253 29.5086 34.601 27.2756 37.9155 27.2756C42.2607 27.2756 43.9967 30.5866 43.9967 35.4411V54.7628L56 54.7611ZM6.71125 13.7166C10.8955 13.7166 13.5048 10.9411 13.5048 7.4743C13.4277 3.9323 10.8973 1.2373 6.79175 1.2373C2.68625 1.2373 0 3.93055 0 7.4743C0 10.9411 2.60575 13.7166 6.636 13.7166H6.71125ZM12.7137 54.7611V18.6463H0.7105V54.7611H12.7137Z" fill="black"/>
</svg>
