<svg width="35" height="40" viewBox="0 0 35 40" fill="none" xmlns="http://www.w3.org/2000/svg">
<g clip-path="url(#clip0_1_99)">
<path d="M31.9184 9.94676C31.8539 9.84803 31.7731 9.76478 31.6805 9.70176C31.5879 9.63874 31.4854 9.59719 31.3787 9.57949C31.2721 9.56179 31.1634 9.56828 31.0589 9.59859C30.9545 9.6289 30.8563 9.68243 30.7699 9.75614L17.5383 21.0436C17.491 21.0842 17.4334 21.1061 17.3742 21.1061C17.3151 21.1061 17.2575 21.0842 17.2102 21.0436L4.23829 9.70614C4.15264 9.63145 4.05497 9.57677 3.95084 9.54522C3.84671 9.51367 3.73816 9.50587 3.63139 9.52227C3.52462 9.53866 3.42172 9.57893 3.32857 9.64077C3.23542 9.70262 3.15383 9.78482 3.08848 9.8827C3.02313 9.98057 2.97528 10.0922 2.94768 10.2112C2.92007 10.3302 2.91325 10.4543 2.92759 10.5763C2.94194 10.6983 2.97718 10.8159 3.03129 10.9224C3.0854 11.0288 3.15733 11.1221 3.24297 11.1968L13.4422 20.1124L3.35508 28.7999C3.26818 28.874 3.1949 28.9669 3.13942 29.0733C3.08394 29.1798 3.04735 29.2976 3.03174 29.4202C3.01612 29.5428 3.02179 29.6678 3.04841 29.7879C3.07504 29.908 3.1221 30.0209 3.18692 30.1202C3.25173 30.2195 3.33303 30.3033 3.42616 30.3667C3.5193 30.4301 3.62245 30.4719 3.72973 30.4897C3.837 30.5076 3.94631 30.5011 4.05139 30.4707C4.15648 30.4402 4.25529 30.3865 4.34219 30.3124L14.7957 21.2936L16.2121 22.5436C16.5424 22.8326 16.946 22.9907 17.3619 22.9941C17.7778 22.9974 18.1834 22.8459 18.5172 22.5624L20.0047 21.2936L30.5813 30.3124C30.6676 30.3861 30.7658 30.4396 30.8703 30.4698C30.9747 30.5001 31.0834 30.5066 31.19 30.4889C31.2967 30.4712 31.3992 30.4297 31.4918 30.3667C31.5844 30.3037 31.6652 30.2205 31.7297 30.1218C31.7941 30.0231 31.841 29.9108 31.8675 29.7915C31.894 29.6721 31.8996 29.5479 31.8841 29.426C31.8687 29.3042 31.8323 29.187 31.7772 29.0811C31.7221 28.9753 31.6493 28.8829 31.5629 28.8093L21.3746 20.1093L31.7516 11.2499C31.9237 11.1013 32.0377 10.8813 32.0689 10.6374C32.1001 10.3935 32.046 10.1454 31.9184 9.94676Z" fill="black"/>
<path d="M30.8984 5.9375H4.10156C3.01376 5.9375 1.97051 6.43136 1.20132 7.31044C0.432128 8.18951 0 9.3818 0 10.625L0 29.375C0 30.6182 0.432128 31.8105 1.20132 32.6896C1.97051 33.5686 3.01376 34.0625 4.10156 34.0625H30.8984C31.9862 34.0625 33.0295 33.5686 33.7987 32.6896C34.5679 31.8105 35 30.6182 35 29.375V10.625C35 9.3818 34.5679 8.18951 33.7987 7.31044C33.0295 6.43136 31.9862 5.9375 30.8984 5.9375ZM33.3594 29.375C33.3594 30.1209 33.1001 30.8363 32.6386 31.3637C32.1771 31.8912 31.5511 32.1875 30.8984 32.1875H4.10156C3.44888 32.1875 2.82293 31.8912 2.36142 31.3637C1.8999 30.8363 1.64063 30.1209 1.64062 29.375V10.625C1.64062 9.87908 1.8999 9.16371 2.36142 8.63626C2.82293 8.10882 3.44888 7.8125 4.10156 7.8125H30.8984C31.5511 7.8125 32.1771 8.10882 32.6386 8.63626C33.1001 9.16371 33.3594 9.87908 33.3594 10.625V29.375Z" fill="black"/>
</g>
<defs>
<clipPath id="clip0_1_99">
<rect width="35" height="40" fill="white"/>
</clipPath>
</defs>
</svg>
