<svg width="42" height="37" viewBox="0 0 42 37" fill="none" xmlns="http://www.w3.org/2000/svg">
<path d="M29.1694 35.0537C27.8862 35.0453 26.6085 34.9034 25.3631 34.6309C21.0622 33.7168 16.6334 31.3978 12.8944 28.101C9.15539 24.8043 6.51972 20.9019 5.48203 17.1166C4.38937 13.1348 5.16867 9.7282 7.6739 7.52121L8.38922 6.89105C9.03822 6.32046 9.91767 6 10.8346 6C11.7515 6 12.6309 6.32046 13.2799 6.89105L17.3905 10.5116C18.0386 11.0831 18.4026 11.8579 18.4026 12.6658C18.4026 13.4737 18.0386 14.2485 17.3905 14.82L14.9624 16.9584C16.1264 18.7578 17.7096 20.5586 19.5807 22.207C21.4519 23.8554 23.4977 25.2509 25.5395 26.2763L27.9668 24.1372C28.2879 23.8543 28.6691 23.6298 29.0887 23.4767C29.5083 23.3235 29.958 23.2447 30.4121 23.2447C30.8663 23.2447 31.316 23.3235 31.7356 23.4767C32.1552 23.6298 32.5364 23.8543 32.8575 24.1372L36.9673 27.7578C37.6155 28.3291 37.9797 29.1038 37.9797 29.9116C37.9797 30.7194 37.6155 31.4942 36.9673 32.0655L36.2511 32.6957C34.485 34.2544 32.0405 35.0537 29.1694 35.0537ZM10.8346 8.16654C10.7036 8.16597 10.5738 8.18843 10.4528 8.2326C10.3318 8.27678 10.222 8.34178 10.1299 8.4238L9.41379 9.05396C7.53773 10.7067 6.98976 13.3899 7.87078 16.605C8.80347 20.0109 11.2045 23.5497 14.631 26.5675C18.0574 29.5853 22.0737 31.6984 25.9406 32.5229C29.591 33.2991 32.6352 32.8163 34.5112 31.1636L35.2266 30.5335C35.4135 30.3687 35.5184 30.1453 35.5184 29.9124C35.5184 29.6794 35.4135 29.456 35.2266 29.2912L31.1176 25.6707C30.9306 25.5061 30.677 25.4136 30.4126 25.4136C30.1481 25.4136 29.8945 25.5061 29.7075 25.6707L26.6305 28.3814C26.4459 28.5441 26.2073 28.6509 25.9492 28.6862C25.6911 28.7216 25.4269 28.6837 25.195 28.578C22.6725 27.4289 20.1295 25.756 17.8409 23.7398C15.5522 21.7236 13.6573 19.4848 12.3497 17.2626C12.2296 17.0583 12.1864 16.8257 12.2264 16.5983C12.2664 16.371 12.3874 16.1607 12.572 15.998L15.6498 13.2873C15.8367 13.1225 15.9417 12.8991 15.9417 12.6662C15.9417 12.4332 15.8367 12.2098 15.6498 12.045L11.54 8.4238C11.4476 8.34192 11.3377 8.27702 11.2166 8.23286C11.0955 8.18869 10.9656 8.16615 10.8346 8.16654Z" fill="black"/>
<path d="M30.4835 22.022C30.1572 22.022 29.8442 21.9078 29.6134 21.7045C29.3827 21.5012 29.2531 21.2255 29.2531 20.938C29.2507 19.0363 28.3921 17.2132 26.8658 15.8684C25.3395 14.5237 23.2701 13.7672 21.1115 13.7649C20.7851 13.7649 20.4721 13.6507 20.2414 13.4474C20.0106 13.2441 19.881 12.9684 19.881 12.6809C19.881 12.3934 20.0106 12.1177 20.2414 11.9144C20.4721 11.7111 20.7851 11.5969 21.1115 11.5969C26.9578 11.5969 31.714 15.7883 31.714 20.938C31.714 21.2255 31.5844 21.5012 31.3536 21.7045C31.1228 21.9078 30.8099 22.022 30.4835 22.022Z" fill="black"/>
<path d="M35.6843 22.0221C35.358 22.0221 35.045 21.9079 34.8142 21.7046C34.5835 21.5013 34.4538 21.2256 34.4538 20.9381C34.4538 14.4566 28.4656 9.18335 21.1115 9.18335C20.7851 9.18335 20.4721 9.06914 20.2414 8.86586C20.0106 8.66257 19.881 8.38686 19.881 8.09937C19.881 7.81187 20.0106 7.53616 20.2414 7.33287C20.4721 7.12959 20.7851 7.01538 21.1115 7.01538C29.8256 7.01538 36.9148 13.2613 36.9148 20.9381C36.9148 21.2256 36.7851 21.5013 36.5544 21.7046C36.3236 21.9079 36.0106 22.0221 35.6843 22.0221Z" fill="black"/>
</svg>
